<svg width="24" height="23" viewBox="0 0 24 23" fill="none" xmlns="http://www.w3.org/2000/svg">
<g clip-path="url(#clip0_1_10)">
<path d="M14.679 12.7928C11.888 12.7928 9.61687 10.4512 9.61687 7.57365C9.61687 4.69605 11.888 2.35452 14.679 2.35452C17.47 2.35452 19.7411 4.69605 19.7411 7.57365C19.7411 10.4512 17.47 12.7928 14.679 12.7928ZM14.679 3.91208C12.7201 3.91208 11.1276 5.5553 11.1276 7.57365C11.1276 9.59199 12.7214 11.2352 14.679 11.2352C16.6366 11.2352 18.2304 9.59199 18.2304 7.57365C18.2304 5.5553 16.6366 3.91208 14.679 3.91208Z" fill="white"/>
<path d="M9.77045 8.85085C9.62316 8.87032 9.47335 8.8807 9.32102 8.8807C7.36214 8.8807 5.76961 7.23747 5.76961 5.21913C5.76961 3.20079 7.3634 1.55756 9.32102 1.55756C10.488 1.55756 11.5254 2.14165 12.1737 3.03984C12.6181 2.77765 13.1053 2.58166 13.6215 2.46874C12.7276 0.987754 11.1339 0 9.32102 0C6.53 0 4.25891 2.34153 4.25891 5.21913C4.25891 8.09673 6.53 10.4383 9.32102 10.4383C9.68359 10.4383 10.0373 10.398 10.3785 10.3227C10.1066 9.87235 9.89886 9.37782 9.77045 8.85085Z" fill="white"/>
<path d="M23.2446 23H6.11204C5.69534 23 5.35669 22.6508 5.35669 22.2212C5.35669 16.3284 9.53881 11.5337 14.6777 11.5337C16.3407 11.5337 17.9736 12.0413 19.3987 13.003C22.2363 14.9163 23.9987 18.448 23.9987 22.2212C23.9987 22.6508 23.6601 23 23.2434 23H23.2446ZM6.89635 21.4424H22.4603C22.2425 18.4896 20.7948 15.8041 18.5728 14.3062C17.3945 13.5118 16.0474 13.0913 14.679 13.0913C10.5963 13.0913 7.23625 16.771 6.89635 21.4424Z" fill="white"/>
<path d="M9.32102 10.7368C9.812 10.7368 10.3005 10.7926 10.7801 10.899C10.3798 10.4019 10.0688 9.82692 9.86865 9.1987C9.68611 9.18702 9.50357 9.17923 9.32102 9.17923C4.18212 9.17923 0 13.9739 0 19.8667C0 20.2963 0.338649 20.6455 0.75535 20.6455H5.45867C5.52791 20.112 5.63114 19.5928 5.76584 19.0879H1.5384C1.87705 14.4165 5.23835 10.7368 9.32102 10.7368Z" fill="white"/>
</g>
<defs>
<clipPath id="clip0_1_10">
<rect width="24" height="23" fill="white"/>
</clipPath>
</defs>
</svg>
