<svg width="240" height="262" viewBox="0 0 240 262" fill="none" xmlns="http://www.w3.org/2000/svg">
<path d="M125.17 111.623C116.039 111.623 103.114 109.912 91.2203 105.755C79.2986 101.59 64.0761 93.4485 59.2454 78.3062C55.6754 67.1244 57.0789 54.2937 63.305 41.2053C67.895 31.5578 73.4356 25.167 73.8151 24.7374C79.3475 18.2525 97.4097 4.50132 110.376 1.45322C118.177 -0.379733 122.322 -0.420647 124.685 1.31411C126.427 2.59063 126.786 4.48904 126.904 6.00286C127.251 10.4543 124.615 14.4639 122.6 17.0906C122.204 17.6102 121.633 18.273 120.972 19.0463C118.903 21.4643 113.403 27.8837 114.346 30.3672C114.485 30.7354 114.619 31.1077 114.75 31.4882C116.096 35.3055 117.487 39.2537 130.902 40.1252C147.129 41.1808 157.48 42.8501 165.693 48.6394C170.034 51.6998 175.387 59.3057 176.888 68.7814C177.79 74.4808 177.598 82.9663 171.568 91.0305C160.058 106.418 147.414 110.182 129.458 111.483C128.153 111.578 126.716 111.627 125.17 111.627V111.623Z" fill="#D2D2D2"/>
<path d="M115.491 182.515C110.701 182.515 106.352 182.339 102.659 182.098C88.5793 181.181 73.4507 176.914 61.1617 170.4C46.3676 162.557 36.8122 152.145 33.5319 140.279C26.755 115.78 36.0941 99.1771 37.1876 97.3524C40.3945 89.9551 46.0861 85.6796 52.4264 85.8923C57.2245 86.0601 58.1221 91.3012 58.779 95.1307C59.0401 96.6446 59.3053 98.2075 59.7337 99.3244C61.1209 102.958 68.0977 109.655 72.4919 112.192C77.7061 115.199 92.1412 121.406 109.481 123.353C124.394 125.027 137.76 123.562 150.351 118.873C155.761 116.856 174.019 109.123 181.754 94.2184C184.814 88.3185 188.384 87.5125 190.832 87.8808C197.397 88.8586 202.803 99.5945 204.182 106.975C208.307 129.036 202.554 147.317 187.083 161.309C177.217 170.233 163.492 176.443 146.283 179.766C135.414 181.864 124.651 182.515 115.499 182.515H115.491Z" fill="#D2D2D2"/>
<path d="M120.042 261.854C102.914 261.854 84.6891 259.661 68.3487 255.484C48.5198 250.415 22.3548 240.125 10.3024 219.897C-0.558532 201.67 -0.905332 185.742 0.714429 175.591C2.48107 164.524 6.83443 157.83 7.01803 157.552C12.42 149.005 17.2996 145.008 21.9182 145.384C27.21 145.81 29.7477 151.742 30.6984 153.972C31.8612 156.693 43.2199 180.787 83.2325 188.426C122.547 195.929 143.462 191.4 168.721 184.187C193.225 177.187 206.897 151.853 208.113 148.273C208.289 147.761 208.46 147.221 208.64 146.673C209.423 144.251 210.308 141.501 211.691 139.488C214.107 135.966 217.077 136.015 219.142 136.678C222.438 137.733 229.615 144.075 234.552 154.32C238.901 163.349 242.883 178.238 237.147 197.91C232.173 214.971 219.672 229.921 201.002 241.135C184.506 251.045 163.996 257.771 141.691 260.578C134.857 261.437 127.554 261.858 120.042 261.862V261.854Z" fill="#D2D2D2"/>
</svg>
