<svg width="512" height="512" viewBox="0 0 512 512" fill="none" xmlns="http://www.w3.org/2000/svg">
<path d="M257.751 52.5854C262.009 52.2547 266.143 54.0529 268.748 58.0627C273.337 65.1523 277.905 72.3039 281.729 79.8275C294.875 105.788 307.732 131.894 320.547 158.02C321.912 160.789 323.503 162.091 326.562 162.505C349.858 165.688 373.153 168.912 396.407 172.405C409.202 174.328 421.955 176.498 434.626 179.061C446.408 181.438 452.278 196.857 444.672 206.138C437.437 214.964 429.314 223.107 421.273 231.251C404.551 248.179 387.767 265.025 370.714 281.602C365.608 286.562 364.389 291.564 365.629 298.488C370.755 327.384 375.427 356.363 380.077 385.341C380.946 390.715 381.214 396.254 381.194 401.711C381.152 411.281 371.127 419.528 361.764 417.13C354.839 415.353 348.018 412.686 341.631 409.462C314.553 395.758 287.62 381.786 260.749 367.689C257.276 365.87 254.754 365.87 251.282 367.689C222.715 382.571 194.067 397.309 165.335 411.839C160.292 414.381 154.731 416.014 149.274 417.668C144.83 419.011 140.82 417.254 137.596 414.278C131.994 409.131 128.935 402.993 130.299 394.973C134.185 371.927 137.864 348.818 141.606 325.751C143.425 314.59 145.12 303.387 147.104 292.246C147.724 288.815 145.926 286.81 143.921 284.785C129.762 270.419 115.52 256.116 101.34 241.792C90.7364 231.086 80.2153 220.317 69.5495 209.672C63.2658 203.389 62.4803 196.32 65.9529 188.466C68.1439 183.484 71.6992 180.074 77.2181 179.123C91.6666 176.622 106.115 173.935 120.605 171.744C142.246 168.458 163.95 165.523 185.633 162.505C188.114 162.153 189.416 160.975 190.532 158.764C205.352 129.331 220.256 99.9388 235.2 70.547C236.668 67.674 238.321 64.8836 240.016 62.1346C244.543 54.797 248.512 52.6474 257.793 52.6474L257.751 52.5854ZM256.056 118.086C255.085 119.802 254.423 120.836 253.886 121.931C245.432 138.838 237.081 155.787 228.524 172.633C225.547 178.503 222.281 184.249 218.664 189.768C215.791 194.15 212.132 198.221 206.572 199.069C185.674 202.273 164.736 205.249 143.817 208.37C138.733 209.135 133.689 210.086 128.646 210.954L127.963 212.318C133.317 217.341 138.815 222.198 143.983 227.386C157.584 241.069 171.019 254.917 184.579 268.663C188.362 272.486 189.767 276.827 188.878 282.222C185.674 301.609 182.677 321.018 179.577 340.426C178.502 347.227 177.365 354.006 176.125 361.571C180.342 359.504 183.814 357.851 187.225 356.135C206.531 346.359 225.899 336.727 245.081 326.723C252.604 322.796 259.57 322.94 267.012 326.826C285.532 336.479 304.218 345.842 322.821 355.308C326.831 357.355 330.862 359.36 335.368 361.633C335.202 360.31 335.14 359.69 335.037 359.091C331.316 336.52 327.575 313.928 323.875 291.357C321.291 275.587 321.291 274.781 332.309 263.392C348.245 246.918 364.492 230.755 380.594 214.468C381.524 213.537 382.392 212.545 383.798 211.036C379.437 210.272 375.799 209.61 372.161 209.011C350.808 205.538 329.477 201.859 308.083 198.718C299.298 197.436 293.676 192.93 289.893 185.2C283.32 171.806 276.499 158.536 269.781 145.205C265.317 136.337 260.811 127.491 256.056 118.086Z" fill="white"/>
<path d="M256 512C114.843 512 0 397.161 0 255.99C0 114.818 114.843 0 256 0C397.157 0 512 114.839 512 255.99C512 397.141 397.157 511.979 256 511.979V512ZM256 37.2048C135.348 37.2048 37.2063 135.363 37.2063 255.99C37.2063 376.616 135.369 474.775 256 474.775C376.631 474.775 474.794 376.616 474.794 255.99C474.794 135.363 376.652 37.2048 256 37.2048Z" fill="white"/>
</svg>
