<svg width="14" height="14" viewBox="0 0 14 14" fill="none" xmlns="http://www.w3.org/2000/svg">
<path fill-rule="evenodd" clip-rule="evenodd" d="M12.3121 2.37112L12.3133 2.3734C12.7798 2.37454 13.2008 2.54545 13.5059 2.82119C13.8084 3.09579 13.9975 3.47522 13.9975 3.89452H14V3.8968V12.4743V12.4755H13.9975C13.9962 12.8948 13.8071 13.2765 13.5021 13.5533C13.1983 13.8268 12.7785 13.9977 12.3146 13.9977V14H12.3121H4.85071H4.84945V13.9977C4.3843 13.9966 3.962 13.8268 3.65694 13.5499C3.3544 13.2753 3.16532 12.8959 3.16406 12.4766C3.16406 9.51868 3.16406 6.85472 3.16406 3.8968V3.89566H3.16658C3.16784 3.47522 3.35818 3.09351 3.66324 2.81777C3.96704 2.54432 4.38556 2.3734 4.85071 2.37226V2.36998H4.85323C7.3391 2.37112 9.82622 2.37112 12.3121 2.37112ZM0.00252116 8.58891L0 1.52568V1.52454H0.00252116C0.00378174 1.10409 0.194129 0.72239 0.497929 0.446651C0.801729 0.173191 1.2215 0.00227883 1.6854 0.00113942V0H1.68792H9.14929C10.1187 0 10.2712 1.13486 9.15055 1.15765H1.68918H1.68666V1.15537C1.57572 1.15537 1.47488 1.19753 1.4005 1.26589C1.32613 1.33198 1.27949 1.42541 1.27949 1.52454H1.28201V1.52568V1.88687C1.28201 4.12127 1.28201 6.35452 1.28201 8.58778C1.28201 9.52893 0.00252116 9.58135 0.00252116 8.58891ZM12.7205 12.4755V3.8968V3.89452H12.723C12.723 3.79539 12.6764 3.7031 12.6008 3.63588C12.5264 3.56979 12.4243 3.52649 12.3133 3.52649V3.52877H12.3121H4.85071H4.84819V3.52649C4.73726 3.52649 4.63641 3.56979 4.56204 3.63701C4.48766 3.7031 4.44102 3.79653 4.44102 3.89566H4.44354V3.8968V12.4743V12.4766H4.44102C4.44102 12.5769 4.48892 12.668 4.5633 12.7352C4.63767 12.8025 4.73978 12.8446 4.84945 12.8446V12.8424H4.85071H12.3121H12.3146V12.8446C12.4243 12.8446 12.5264 12.8013 12.6008 12.7341C12.6751 12.668 12.7218 12.5746 12.7218 12.4755H12.7205Z" fill="white"/>
</svg>
