<svg width="512" height="512" viewBox="0 0 512 512" fill="none" xmlns="http://www.w3.org/2000/svg">
<path fill-rule="evenodd" clip-rule="evenodd" d="M450.27 86.7154L450.317 86.7987C467.374 86.8404 482.772 93.0909 493.928 103.175C504.993 113.218 511.908 127.094 511.908 142.428H512V142.512V456.204V456.245H511.908C511.862 471.58 504.947 485.539 493.79 495.665C482.68 505.666 467.328 511.917 450.363 511.917V512H450.27H177.397H177.351V511.917C160.34 511.875 144.896 505.666 133.74 495.54C122.675 485.498 115.76 471.622 115.714 456.287C115.714 348.112 115.714 250.687 115.714 142.512V142.47H115.806C115.852 127.094 122.814 113.134 133.97 103.05C145.08 93.0492 160.386 86.7987 177.397 86.7571V86.6737H177.49C268.401 86.7154 359.359 86.7154 450.27 86.7154ZM0.0922024 314.109L0 55.7962V55.7545H0.0922024C0.138304 40.3783 7.09959 26.4188 18.21 16.3347C29.3204 6.33385 44.6721 0.0833401 61.6373 0.0416701V0H61.7295H334.603C370.054 0 375.633 41.5034 334.649 42.3368H61.7756H61.6834V42.2534C57.6265 42.2534 53.9384 43.7952 51.2184 46.2954C48.4985 48.7123 46.7927 52.1292 46.7927 55.7545H46.8849V55.7962V69.0056C46.8849 150.721 46.8849 232.394 46.8849 314.067C46.8849 348.487 0.0922024 350.403 0.0922024 314.109ZM465.207 456.245V142.512V142.428H465.299C465.299 138.803 463.594 135.428 460.828 132.969C458.108 130.552 454.374 128.969 450.317 128.969V129.052H450.27H177.397H177.305V128.969C173.248 128.969 169.56 130.552 166.84 133.011C164.12 135.428 162.415 138.845 162.415 142.47H162.507V142.512V456.204V456.287H162.415C162.415 459.954 164.166 463.288 166.886 465.746C169.606 468.205 173.341 469.747 177.351 469.747V469.663H177.397H450.27H450.363V469.747C454.374 469.747 458.108 468.163 460.828 465.705C463.548 463.288 465.253 459.871 465.253 456.245H465.207Z" fill="white"/>
</svg>
