<svg width="202" height="68" viewBox="0 0 202 68" fill="none" xmlns="http://www.w3.org/2000/svg">
<path d="M25.4943 7.27273H28.767V12.1364H25.4943V7.27273ZM0.8125 40.0909L19.858 0.227272H34.4034L53.4034 40.0909H40.0398L26.6307 10.3182H27.5852L14.267 40.0909H0.8125ZM67.983 65.0455C67.8314 59.5303 68.5587 54.9394 70.1648 51.2727C71.8011 47.6061 74.0739 44.8636 76.983 43.0455C79.9223 41.197 83.286 40.2727 87.0739 40.2727C90.0133 40.2727 92.7708 40.8939 95.3466 42.1364C97.9223 43.3485 100.877 45.4242 104.21 48.3636C106.119 50 107.695 51.2273 108.938 52.0455C110.18 52.8636 111.604 53.2727 113.21 53.2727C115.513 53.2727 117.377 52.3939 118.801 50.6364C120.256 48.8485 120.938 46.1515 120.847 42.5455H134.028C134.18 48.0303 133.422 52.6061 131.756 56.2727C130.119 59.9394 127.831 62.697 124.892 64.5455C121.953 66.3636 118.634 67.2727 114.938 67.2727C111.907 67.2727 109.089 66.6364 106.483 65.3636C103.877 64.0909 100.953 62.0455 97.7102 59.2273C95.7102 57.4697 94.1042 56.2121 92.892 55.4545C91.7102 54.697 90.3314 54.3182 88.7557 54.3182C86.5436 54.3182 84.6951 55.1515 83.2102 56.8182C81.7557 58.4545 81.0587 61.197 81.1193 65.0455H67.983ZM173.244 7.27273H176.517V12.1364H173.244V7.27273ZM148.562 40.0909L167.608 0.227272H182.153L201.153 40.0909H187.79L174.381 10.3182H175.335L162.017 40.0909H148.562Z" fill="white"/>
</svg>
