<svg width="23" height="24" viewBox="0 0 23 24" fill="none" xmlns="http://www.w3.org/2000/svg">
<g clip-path="url(#clip0_1_16)">
<path d="M10.9583 12.132C7.67702 12.132 5.00701 9.41085 5.00701 6.06675C5.00701 2.72264 7.67702 0 10.9583 0C14.2396 0 16.9096 2.72114 16.9096 6.06524C16.9096 9.40934 14.2396 12.1305 10.9583 12.1305V12.132ZM10.9583 1.81007C8.65534 1.81007 6.78307 3.71969 6.78307 6.06524C6.78307 8.41078 8.65682 10.3204 10.9583 10.3204C13.2598 10.3204 15.1335 8.41078 15.1335 6.06524C15.1335 3.71969 13.2598 1.81007 10.9583 1.81007Z" fill="white"/>
<path d="M13.874 23.9925H0.888031C0.398134 23.9925 0 23.5867 0 23.0874C0 16.2393 4.91673 10.6673 10.9583 10.6673C12.9134 10.6673 14.8331 11.2571 16.5085 12.3748C16.9185 12.6479 17.0339 13.209 16.766 13.6283C16.4981 14.0461 15.9476 14.1638 15.5361 13.8908C14.1508 12.9676 12.5671 12.4789 10.9583 12.4789C6.15849 12.4789 2.20824 16.7552 1.80862 22.1839H13.8725C14.3624 22.1839 14.7606 22.5897 14.7606 23.0889C14.7606 23.5882 14.3624 23.994 13.8725 23.994L13.874 23.9925Z" fill="white"/>
<path d="M18.5776 24C18.0877 24 17.6896 23.5942 17.6896 23.095V15.8939C17.6896 15.3946 18.0877 14.9889 18.5776 14.9889C19.0675 14.9889 19.4656 15.3946 19.4656 15.8939V23.095C19.4656 23.5942 19.0675 24 18.5776 24Z" fill="white"/>
<path d="M22.112 20.398H15.0447C14.5548 20.398 14.1567 19.9922 14.1567 19.4929C14.1567 18.9937 14.5548 18.5879 15.0447 18.5879H22.112C22.6019 18.5879 23 18.9937 23 19.4929C23 19.9922 22.6019 20.398 22.112 20.398Z" fill="white"/>
</g>
<defs>
<clipPath id="clip0_1_16">
<rect width="23" height="24" fill="white"/>
</clipPath>
</defs>
</svg>
