<svg width="512" height="512" viewBox="0 0 512 512" fill="none" xmlns="http://www.w3.org/2000/svg">
<g clip-path="url(#clip0_2027_2)">
<path d="M98.8396 512H401.83V0H0V406.745C0 464.794 44.3508 512.023 98.8396 512.023V512ZM364.304 472.015H98.8396C65.0464 472.015 37.548 442.731 37.548 406.721V39.9853H364.304V472.015Z" fill="white"/>
<path d="M364.304 512H434.761C477.345 512 512 475.096 512 429.748V307.252C512 261.904 477.345 225 434.761 225H364.304V512ZM434.761 264.985C456.65 264.985 474.452 283.943 474.452 307.252V429.748C474.452 453.057 456.65 472.015 434.761 472.015H401.852V264.985H434.761Z" fill="white"/>
<path d="M113.483 181.721L232.687 181.721C246.178 181.721 257.115 170.075 257.115 155.707V155.684C257.115 141.317 246.178 129.67 232.687 129.67L113.483 129.67C99.9918 129.67 89.0548 141.317 89.0548 155.684V155.707C89.0548 170.075 99.9918 181.721 113.483 181.721Z" fill="white"/>
<path d="M113.505 282.014H284.945C298.436 282.014 309.373 270.367 309.373 256V255.976C309.373 241.609 298.436 229.963 284.945 229.963L113.505 229.963C100.014 229.963 89.0767 241.609 89.0767 255.976V256C89.0767 270.367 100.014 282.014 113.505 282.014Z" fill="white"/>
<path d="M113.483 382.33H232.687C246.178 382.33 257.115 370.683 257.115 356.316V356.293C257.115 341.925 246.178 330.279 232.687 330.279H113.483C99.9918 330.279 89.0548 341.925 89.0548 356.293V356.316C89.0548 370.683 99.9918 382.33 113.483 382.33Z" fill="white"/>
</g>
<defs>
<clipPath id="clip0_2027_2">
<rect width="512" height="512" fill="white"/>
</clipPath>
</defs>
</svg>
