<svg width="23" height="24" viewBox="0 0 23 24" fill="none" xmlns="http://www.w3.org/2000/svg">
<g clip-path="url(#clip0_550_82)">
<path d="M10.9581 12.132C7.67685 12.132 5.00684 9.41085 5.00684 6.06675C5.00684 2.72264 7.67685 0 10.9581 0C14.2394 0 16.9094 2.72114 16.9094 6.06524C16.9094 9.40934 14.2394 12.1305 10.9581 12.1305V12.132ZM10.9581 1.81007C8.65516 1.81007 6.7829 3.71969 6.7829 6.06524C6.7829 8.41078 8.65664 10.3204 10.9581 10.3204C13.2596 10.3204 15.1333 8.41078 15.1333 6.06524C15.1333 3.71969 13.2596 1.81007 10.9581 1.81007Z" fill="white"/>
<path d="M13.874 23.9925H0.888031C0.398134 23.9925 0 23.5867 0 23.0874C0 16.2394 4.91673 10.6674 10.9583 10.6674C12.9134 10.6674 14.8331 11.2571 16.5085 12.3749C16.9185 12.6479 17.0339 13.209 16.766 13.6283C16.4981 14.0462 15.9476 14.1638 15.5361 13.8908C14.1508 12.9677 12.5671 12.4789 10.9583 12.4789C6.15849 12.4789 2.20824 16.7552 1.80862 22.1839H13.8725C14.3624 22.1839 14.7606 22.5897 14.7606 23.089C14.7606 23.5882 14.3624 23.994 13.8725 23.994L13.874 23.9925Z" fill="white"/>
<path d="M18.5775 24C18.0876 24 17.6895 23.5943 17.6895 23.095V15.8939C17.6895 15.3946 18.0876 14.9889 18.5775 14.9889C19.0674 14.9889 19.4655 15.3946 19.4655 15.8939V23.095C19.4655 23.5943 19.0674 24 18.5775 24Z" fill="white"/>
<path d="M22.1115 20.398H15.0443C14.5544 20.398 14.1562 19.9922 14.1562 19.4929C14.1562 18.9936 14.5544 18.5879 15.0443 18.5879H22.1115C22.6014 18.5879 22.9996 18.9936 22.9996 19.4929C22.9996 19.9922 22.6014 20.398 22.1115 20.398Z" fill="white"/>
</g>
<defs>
<clipPath id="clip0_550_82">
<rect width="23" height="24" fill="white"/>
</clipPath>
</defs>
</svg>
