<svg width="355" height="512" viewBox="0 0 355 512" fill="none" xmlns="http://www.w3.org/2000/svg">
<g clip-path="url(#clip0_699_44)">
<path d="M335.363 100.985C308.472 45.4599 263.641 12.1761 202.092 2.0326C197.187 1.23129 187.664 0.0781769 187.263 0.0390884L167.548 0L166.861 0.0586327C164.075 0.469061 161.269 0.840402 158.464 1.1922C152.299 1.99351 145.925 2.81437 139.665 4.22155C107.965 11.3552 80.0628 26.3261 56.7027 48.7433C24.5445 79.5841 5.84121 117.773 1.08905 162.276C-3.3005 203.338 5.59311 242.485 27.5218 278.662L65.5391 341.398C97.5828 394.305 129.646 447.191 161.708 500.098C166.365 507.798 172.701 512.02 179.515 512.02C179.553 512.02 179.61 512.02 179.648 512.02C186.576 511.961 192.951 507.563 197.607 499.629C210.451 477.661 223.353 455.713 236.235 433.764C266.542 382.148 297.861 328.773 328.263 276.004C361.395 218.485 363.799 159.598 335.401 100.985H335.363ZM294.521 257.612C257.954 320.154 221.368 382.676 184.801 445.217L179.247 454.716L144.322 397.08C116.229 350.721 88.1357 304.362 60.0617 258.003C37.5032 220.752 32.1785 181.136 44.2021 140.23C55.4431 102.021 78.8222 73.3495 113.71 55.017C134.36 44.1699 155.41 38.7367 176.671 38.7367C194.172 38.7367 211.845 42.4305 229.556 49.7987C265.874 64.9259 291.544 91.4279 305.876 128.581C322.805 172.4 318.988 215.827 294.54 257.632L294.521 257.612Z" fill="white"/>
<path d="M177.013 88.2812C152.813 88.3203 129.987 98.0925 112.773 115.76C95.558 133.448 86.111 156.823 86.1682 181.585C86.3018 232.889 127.067 274.577 177.108 274.577H182.013V274.44C204.495 273.228 225.47 263.652 241.52 247.195C258.697 229.566 268.125 206.192 268.086 181.351C268.048 156.549 258.525 133.174 241.272 115.565C224.019 97.9361 201.251 88.164 177.013 88.3008V88.2812ZM229.84 181.781C229.687 211.429 206.041 235.469 177.089 235.469H176.898C147.889 235.352 124.319 211.078 124.357 181.351C124.357 166.888 129.911 153.285 139.95 143.083C149.931 132.94 163.138 127.37 177.204 127.37C177.318 127.37 177.433 127.37 177.547 127.37C206.537 127.565 230.012 151.976 229.859 181.781H229.84Z" fill="white"/>
</g>
<defs>
<clipPath id="clip0_699_44">
<rect width="355" height="512" fill="white"/>
</clipPath>
</defs>
</svg>
