<svg width="512" height="512" viewBox="0 0 512 512" fill="none" xmlns="http://www.w3.org/2000/svg">
<g clip-path="url(#clip0_699_10)">
<path d="M98.8396 512H401.83V0H0V406.745C0 464.794 44.3508 512.023 98.8396 512.023V512ZM364.304 472.015H98.8396C65.0464 472.015 37.548 442.731 37.548 406.721V39.9853H364.304V472.015Z" fill="white"/>
<path d="M364.305 512H434.762C477.346 512 512.001 475.096 512.001 429.748V307.252C512.001 261.904 477.346 225 434.762 225H364.305V512ZM434.762 264.985C456.651 264.985 474.453 283.943 474.453 307.252V429.748C474.453 453.057 456.651 472.015 434.762 472.015H401.853V264.985H434.762Z" fill="white"/>
<path d="M113.485 181.723L232.689 181.723C246.18 181.723 257.117 170.076 257.117 155.709V155.685C257.117 141.318 246.18 129.671 232.689 129.671L113.485 129.671C99.9937 129.671 89.0568 141.318 89.0568 155.685V155.709C89.0568 170.076 99.9937 181.723 113.485 181.723Z" fill="white"/>
<path d="M113.507 282.016H284.947C298.438 282.016 309.375 270.369 309.375 256.002V255.978C309.375 241.611 298.438 229.964 284.947 229.964L113.507 229.964C100.016 229.964 89.0787 241.611 89.0787 255.978V256.002C89.0787 270.369 100.016 282.016 113.507 282.016Z" fill="white"/>
<path d="M113.485 382.328H232.689C246.18 382.328 257.117 370.681 257.117 356.314V356.291C257.117 341.924 246.18 330.277 232.689 330.277H113.485C99.9937 330.277 89.0568 341.924 89.0568 356.291V356.314C89.0568 370.681 99.9937 382.328 113.485 382.328Z" fill="white"/>
</g>
<defs>
<clipPath id="clip0_699_10">
<rect width="512" height="512" fill="white"/>
</clipPath>
</defs>
</svg>
