<svg width="512" height="512" viewBox="0 0 512 512" fill="none" xmlns="http://www.w3.org/2000/svg">
<path d="M232.95 511.997L34.9353 326.594H0V31.6055H109.569L187.56 198.15L298.439 155.502L416.605 283.446V316.735L232.974 511.973L232.95 511.997ZM35.7212 291.542H49.2477L231.355 462.039L380.884 303.043V296.971L288.532 196.959L169.2 242.869L86.6836 66.6574H35.7212V291.542Z" fill="white"/>
<path d="M511.976 324.944H425.531V275.629L296.911 136.35L193.129 177.212L144 79.081L301.602 0L423.531 58.1261L512 29.8846V324.92L511.976 324.944ZM461.228 289.892H476.231V78.1762L420.84 95.8688L301.959 39.1952L191.509 94.6067L210.537 132.588L306.651 94.7496L461.228 262.151V289.916V289.892Z" fill="white"/>
</svg>
