<svg width="400" height="512" viewBox="0 0 400 512" fill="none" xmlns="http://www.w3.org/2000/svg">
<path d="M200.011 0C87.8583 0 0 48.8993 0 111.318V400.682C0 463.101 87.8583 512 200.011 512C312.163 512 400 463.101 400 400.682V111.318C400 48.8993 312.142 0 200.011 0ZM200.011 29.7132C302.025 29.7132 370.553 71.9058 370.553 111.318C370.553 150.731 302.025 192.923 200.011 192.923C97.9966 192.923 29.4473 150.731 29.4473 111.318C29.4473 71.9058 97.9756 29.7132 200.011 29.7132ZM200.011 482.266C97.9966 482.266 29.4473 440.073 29.4473 400.661V363.137C64.3424 394.803 127.023 415.517 200.011 415.517C272.998 415.517 335.679 394.803 370.553 363.137V400.661C370.553 440.073 302.025 482.266 200.011 482.266ZM200.011 385.825C97.9966 385.825 29.4473 343.633 29.4473 304.22V266.697C64.3424 298.362 127.023 319.077 200.011 319.077C272.998 319.077 335.679 298.362 370.553 266.697V304.22C370.553 343.633 302.025 385.825 200.011 385.825ZM200.011 289.364C97.9966 289.364 29.4473 247.171 29.4473 207.759V170.235C64.3424 201.901 127.023 222.615 200.011 222.615C272.998 222.615 335.679 201.901 370.553 170.235V207.759C370.553 247.171 302.025 289.364 200.011 289.364Z" fill="white"/>
</svg>
