<svg width="20" height="20" viewBox="0 0 20 20" fill="none" xmlns="http://www.w3.org/2000/svg">
<g clip-path="url(#clip0_129_105)">
<path d="M0 4.16415C0.107011 3.85149 0.170017 3.5132 0.329533 3.2302C0.80408 2.38924 1.54715 1.95946 2.51025 1.95343C3.9549 1.94388 5.40004 1.94941 6.84518 1.95142C7.18172 1.95192 7.40774 2.1555 7.41024 2.44554C7.41324 2.73809 7.17472 2.9477 6.83268 2.9482C5.41354 2.94921 3.9949 2.9467 2.57576 2.94921C1.80218 2.95072 1.24012 3.37094 1.0476 4.09629C1.0081 4.24558 0.9976 4.40643 0.9976 4.56176C0.9951 8.8344 0.994599 13.1065 0.9966 17.3792C0.9966 18.1794 1.39514 18.7399 2.10571 18.938C2.26623 18.9827 2.43924 19.0003 2.60626 19.0003C7.18822 19.0033 11.7707 19.0033 16.3526 19.0023C17.3272 19.0023 17.9598 18.3604 17.9613 17.3752C17.9633 15.9556 17.9613 14.5356 17.9623 13.1156C17.9623 12.8301 18.1108 12.6205 18.3418 12.5682C18.6459 12.4998 18.9389 12.72 18.9474 13.0402C18.9579 13.4388 18.9519 13.8384 18.9514 14.2375C18.9499 15.3695 18.9649 16.5015 18.9409 17.633C18.9144 18.8847 17.8558 19.9367 16.6097 19.9905C16.5187 19.9946 16.4276 19.9981 16.3366 19.9981C11.7612 19.9981 7.18522 19.9966 2.60976 20.0001C1.60716 20.0011 0.829083 19.5964 0.330533 18.7208C0.170017 18.4388 0.107511 18.1005 0 17.7879C0 13.2463 0 8.70522 0 4.16365L0 4.16415Z" fill="#B8B8B8"/>
<path d="M17.1852 0C17.7403 0.0105559 18.2448 0.19252 18.6658 0.579069C18.8964 0.790691 19.1159 1.01488 19.3329 1.24057C20.2045 2.14688 20.2225 3.45883 19.3799 4.39077C19.3274 4.44858 19.2724 4.50437 19.2169 4.56017C16.3451 7.44697 13.4723 10.3333 10.6035 13.2231C10.4415 13.3864 10.263 13.491 10.0415 13.5518C8.74385 13.9072 7.44872 14.2716 6.15309 14.6341C5.98058 14.6823 5.81206 14.718 5.64304 14.6205C5.43452 14.4998 5.34751 14.2812 5.42152 14.0108C5.71505 12.9335 6.05008 11.8659 6.29511 10.7781C6.47063 9.99749 6.85716 9.40836 7.41972 8.85191C10.1285 6.17121 12.8063 3.45933 15.4905 0.753996C15.9586 0.282497 16.5041 0.0110586 17.1847 0.00100533L17.1852 0ZM15.067 2.65557C12.6542 5.08093 10.2395 7.50829 7.85376 9.906C8.61484 10.6711 9.38942 11.4502 10.143 12.2072C12.5382 9.79944 14.9525 7.37257 17.3562 4.95627C16.5986 4.19473 15.8266 3.41862 15.067 2.65507V2.65557ZM18.1288 4.25002C18.3438 4.01779 18.5853 3.79662 18.7799 3.53926C19.0914 3.12707 19.0784 2.4907 18.7454 2.09812C18.4893 1.79652 18.2008 1.52006 17.9063 1.25465C17.6857 1.05559 17.4032 0.997788 17.1072 1.00885C16.4786 1.03197 16.1656 1.51855 15.7806 1.8875C16.5666 2.67819 17.3377 3.45431 18.1283 4.25002H18.1288ZM9.13639 12.7611C8.51883 12.1398 7.90977 11.5271 7.30421 10.9184C7.07769 11.7412 6.84516 12.5877 6.60314 13.4669C7.47773 13.2231 8.31881 12.9888 9.13639 12.7611Z" fill="#B8B8B8"/>
</g>
<defs>
<clipPath id="clip0_129_105">
<rect width="20" height="20" fill="white"/>
</clipPath>
</defs>
</svg>
