<svg width="200" height="200" viewBox="0 0 200 200" fill="none" xmlns="http://www.w3.org/2000/svg">
<path d="M99.9999 40C110 25 99.9999 15 89.9999 10C94.9999 20 84.9999 25 79.9999 30C74.9999 35 76.9999 40 79.9999 45C64.9999 50 59.9999 65 69.9999 75C54.9999 80 44.9999 95 49.9999 110H150C155 95 145 80 130 75C140 65 135 50 120 45C123 40 125 35 120 30C115 25 105 20 110 10C99.9999 15 89.9999 25 99.9999 40Z" fill="black"/>
<path d="M70 140C73.866 140 77 135.523 77 130C77 124.477 73.866 120 70 120C66.134 120 63 124.477 63 130C63 135.523 66.134 140 70 140Z" fill="white"/>
<path d="M130 140C133.866 140 137 135.523 137 130C137 124.477 133.866 120 130 120C126.134 120 123 124.477 123 130C123 135.523 126.134 140 130 140Z" fill="white"/>
<path d="M100 145C102.761 145 105 142.761 105 140C105 137.239 102.761 135 100 135C97.2386 135 95 137.239 95 140C95 142.761 97.2386 145 100 145Z" fill="white"/>
</svg>
