<svg width="22" height="20" viewBox="0 0 22 20" fill="none" xmlns="http://www.w3.org/2000/svg">
<g clip-path="url(#clip0_684_1433)">
<path d="M13.4567 11.1236C10.8982 11.1236 8.81641 9.08751 8.81641 6.58525C8.81641 4.08299 10.8982 2.04688 13.4567 2.04688C16.0151 2.04688 18.0969 4.08299 18.0969 6.58525C18.0969 9.08751 16.0151 11.1236 13.4567 11.1236ZM13.4567 3.40128C11.661 3.40128 10.2012 4.83017 10.2012 6.58525C10.2012 8.34033 11.6622 9.76922 13.4567 9.76922C15.2512 9.76922 16.7121 8.34033 16.7121 6.58525C16.7121 4.83017 15.2512 3.40128 13.4567 3.40128Z" fill="#D2D2D2"/>
<path d="M8.95459 7.69639C8.81957 7.71332 8.68224 7.72235 8.54261 7.72235C6.74697 7.72235 5.28715 6.29345 5.28715 4.53837C5.28715 2.7833 6.74813 1.3544 8.54261 1.3544C9.61237 1.3544 10.5633 1.8623 11.1576 2.64334C11.565 2.41535 12.0116 2.24492 12.4847 2.14673C11.6654 0.858917 10.2044 0 8.54261 0C5.98417 0 3.90234 2.03612 3.90234 4.53837C3.90234 7.04063 5.98417 9.07675 8.54261 9.07675C8.87496 9.07675 9.19924 9.04176 9.51197 8.9763C9.26271 8.58465 9.0723 8.15463 8.95459 7.69639Z" fill="#D2D2D2"/>
<path d="M21.3075 20H5.60256C5.22058 20 4.91016 19.6963 4.91016 19.3228C4.91016 14.1986 8.74377 10.0293 13.4544 10.0293C14.9789 10.0293 16.4756 10.4706 17.782 11.3069C20.3831 12.9706 21.9987 16.0417 21.9987 19.3228C21.9987 19.6963 21.6883 20 21.3063 20H21.3075ZM6.32151 18.6455H20.5885C20.3889 16.0778 19.0618 13.7426 17.0249 12.4401C15.9448 11.7494 14.71 11.3837 13.4556 11.3837C9.71314 11.3837 6.63309 14.5835 6.32151 18.6455Z" fill="#D2D2D2"/>
<path d="M8.54427 9.33682C8.99433 9.33682 9.44209 9.38536 9.88177 9.47791C9.51479 9.04563 9.22975 8.54563 9.04627 7.99935C8.87893 7.98919 8.7116 7.98242 8.54427 7.98242C3.83361 7.98242 0 12.1517 0 17.2759C0 17.6495 0.310428 17.9531 0.692405 17.9531H5.00378C5.06725 17.4892 5.16188 17.0377 5.28535 16.5987H1.4102C1.72063 12.5366 4.80183 9.33682 8.54427 9.33682Z" fill="#D2D2D2"/>
</g>
<defs>
<clipPath id="clip0_684_1433">
<rect width="22" height="20" fill="white"/>
</clipPath>
</defs>
</svg>
