<svg width="512" height="512" viewBox="0 0 512 512" fill="none" xmlns="http://www.w3.org/2000/svg">
<g clip-path="url(#clip0_699_29)">
<path d="M0 256.083C1.05869 267.897 1.28967 279.846 3.3108 291.486C21.6165 397.25 82.693 466.664 182.96 501.371C200.669 507.5 220.014 510.613 238.782 511.58C332.235 516.394 407.748 480.624 462.338 404.559C510.364 337.62 521.836 262.792 501.24 182.995C496.447 164.414 478.392 153.161 460.856 157.917C443.859 162.519 433.599 181.719 439.162 199.797C447.998 228.472 449.268 257.533 444.283 286.922C425.149 399.86 311.774 476.602 189.909 435.805C86.947 401.33 37.6507 285.163 78.5545 183.15C111.874 100.066 200.823 50.7605 288.405 66.9829C297.318 68.6264 305.922 72.0874 314.873 73.3829C331.234 75.7418 346.941 64.508 349.771 49.349C353.139 31.3672 343.842 15.2415 327.288 10.485C282.746 -2.27634 237.916 -3.61048 192.95 7.87472C80.3832 36.5684 1.27042 138.775 0 256.083ZM213.932 256.276C211.102 252.641 210.043 250.959 208.677 249.586C196.935 237.714 185.155 225.861 173.317 214.067C165.752 206.545 156.763 202.504 145.964 204.38C133.221 206.584 124.521 214.164 120.286 226.267C116.013 238.487 119.362 249.373 128.236 258.384C148.255 278.724 168.485 298.891 188.619 319.116C204.962 335.532 223.652 335.512 240.052 319.038C323.381 235.355 406.69 151.672 489.999 67.9883C494.522 63.4445 499.18 59.0167 503.473 54.2796C511.057 45.9073 513.809 36.0463 510.787 25.0832C503.992 0.35327 475.408 -6.82015 456.852 11.6064C400.376 67.737 343.842 123.809 287.616 180.211C263.074 204.825 239.225 230.135 213.932 256.276Z" fill="white"/>
<path d="M0 256.082C1.27042 138.775 80.3832 36.5682 192.95 7.85519C237.916 -3.63001 282.746 -2.29587 327.288 10.4655C343.861 15.222 353.159 31.3476 349.771 49.3295C346.922 64.4884 331.234 75.7416 314.873 73.3633C305.941 72.0679 297.318 68.6262 288.405 66.9634C200.823 50.741 111.874 100.065 78.5545 183.13C37.6507 285.143 86.9278 401.31 189.909 435.785C311.774 476.583 425.13 399.821 444.283 286.903C449.268 257.513 447.978 228.452 439.162 199.778C433.6 181.719 443.859 162.499 460.856 157.898C478.392 153.141 496.447 164.394 501.24 182.975C521.836 262.792 510.383 337.62 462.338 404.539C407.748 480.604 332.235 516.375 238.782 511.56C220.014 510.594 200.669 507.481 182.96 501.351C82.6931 466.664 21.6165 397.25 3.3108 291.485C1.28967 279.846 1.05869 267.896 0 256.082Z" fill="white"/>
<path d="M213.933 256.271C239.226 230.111 263.075 204.82 287.617 180.206C343.843 123.824 400.377 67.7324 456.853 11.6019C475.409 -6.82472 503.994 0.329355 510.788 25.0786C513.811 36.0611 511.039 45.9221 503.474 54.275C499.181 59.0315 494.523 63.4399 490 67.9837C406.691 151.667 323.363 235.35 240.054 319.034C223.634 335.508 204.963 335.527 188.621 319.111C168.467 298.886 148.256 278.72 128.237 258.379C119.363 249.369 116.014 238.483 120.287 226.263C124.522 214.14 133.222 206.58 145.965 204.375C156.764 202.5 165.753 206.541 173.318 214.062C185.156 225.838 196.917 237.709 208.678 249.581C210.045 250.954 211.103 252.636 213.933 256.271Z" fill="white"/>
</g>
<defs>
<clipPath id="clip0_699_29">
<rect width="512" height="512" fill="white"/>
</clipPath>
</defs>
</svg>
