<svg width="512" height="512" viewBox="0 0 512 512" fill="none" xmlns="http://www.w3.org/2000/svg">
<path d="M169.553 0C227.181 0 284.793 0 342.421 0C342.74 0.202433 343.013 0.531385 343.363 0.581993C372.009 4.68125 392.044 17.9279 404.013 39.9298C404.742 41.271 407.476 42.5615 409.344 42.6247C417.531 42.9157 425.748 42.688 433.951 42.7639C478.819 43.1688 511.901 70.7249 511.932 108.099C512.023 220.917 512.023 333.736 511.932 446.566C511.901 484.017 478.288 511.94 433.358 511.965C315.126 512.028 196.879 512.003 78.6464 511.914C72.4948 511.914 66.2065 511.471 60.222 510.333C24.3301 503.539 0.133806 478.108 0.0730495 447.06C-0.0484635 385.229 0.0274815 323.411 0.0426706 261.581C0.0426706 210.087 -0.0788414 158.593 0.088239 107.1C0.179374 76.8485 24.0871 50.9371 59.0676 44.7123C72.3581 42.3464 86.484 43.1055 100.245 42.8651C104.817 42.7892 107.202 41.9162 109.192 38.1965C118.275 21.2048 133.677 9.67881 154.683 3.4287C159.513 1.99902 164.602 1.12603 169.569 0H169.553ZM51.063 276.979C51.063 330.459 51.063 383.939 51.063 437.419C51.063 441.088 50.9111 444.757 51.1389 448.414C51.8072 458.864 59.2347 466.721 70.5051 468.657C74.1808 469.29 78.0692 469.201 81.8513 469.214C197.866 469.239 313.881 469.239 429.895 469.226C432.69 469.226 435.5 469.226 438.295 469.049C449.322 468.29 458.208 461.648 460.137 452.551C460.729 449.78 460.881 446.921 460.881 444.099C460.911 332.964 460.911 221.841 460.911 110.705C460.911 109.212 460.957 107.707 460.851 106.214C459.894 93.5745 450.142 85.667 434.908 85.376C426.508 85.2115 418.108 85.4519 409.709 85.2874C406.428 85.2242 404.879 86.1731 403.451 88.6908C388.824 114.539 364.43 127.975 329.905 128.026C280.495 128.102 231.1 128.14 181.69 128.013C147.438 127.925 123.227 114.45 108.584 88.8679C107.202 86.4641 105.896 85.2115 102.478 85.2874C93.8811 85.4772 85.2689 85.1862 76.6718 85.4013C61.7561 85.7682 52.111 93.6631 51.1389 106.062C51.0022 107.884 51.063 109.731 51.063 111.553C51.063 166.703 51.063 221.854 51.063 277.004V276.979ZM255.98 42.8019C255.98 42.8019 255.98 42.8525 255.98 42.8778C229.596 42.8778 203.228 42.6627 176.859 42.9663C164.769 43.1055 154.987 51.2155 153.969 60.7551C152.693 72.7998 160.03 82.3395 172.743 84.6675C176.404 85.338 180.292 85.2874 184.074 85.3001C230.234 85.338 276.394 85.3254 322.554 85.3127C326.943 85.3127 331.363 85.4266 335.738 85.085C346.066 84.2753 353.205 79.6446 356.744 71.5726C363.033 57.2631 351.671 43.0802 333.323 42.8651C307.547 42.5615 281.771 42.7892 255.995 42.7892L255.98 42.8019Z" fill="white"/>
<path d="M168.837 232.552C161.09 226.454 153.541 220.545 146.038 214.612C140.205 210.006 133.324 207.653 125.305 208.437C114.885 209.462 107.412 214.144 103.873 222.405C100.258 230.87 102.536 238.613 110.222 244.875C123.239 255.452 136.484 265.84 149.698 276.252C161.91 285.881 175.854 285.906 188.036 276.29C207.478 260.956 226.874 245.571 246.271 230.186C247.85 228.934 249.43 227.618 250.752 226.163C258.908 217.205 257.389 204.743 247.273 197.304C236.489 189.358 223.411 189.459 213.098 197.595C198.455 209.146 183.828 220.71 168.821 232.565L168.837 232.552ZM168.989 357.453C160.969 351.178 153.435 345.244 145.855 339.335C139.992 334.768 133.051 332.503 125.046 333.402C114.657 334.566 107.275 339.348 103.873 347.635C100.364 356.163 102.916 363.805 110.586 370.042C123.3 380.391 136.226 390.576 149.091 400.799C162.108 411.136 175.626 411.148 188.734 400.774C208.009 385.528 227.224 370.244 246.423 354.948C248.154 353.569 249.825 352.114 251.222 350.507C258.954 341.613 257.146 329.302 247.152 322.091C236.459 314.373 223.426 314.462 213.402 322.369C198.759 333.92 184.147 345.497 169.004 357.466L168.989 357.453ZM358.701 383.934C366.903 383.934 375.105 383.997 383.292 383.921C398.025 383.782 409.205 374.926 409.6 363.21C409.994 351.684 399.711 341.828 385.358 341.385C367.389 340.828 349.359 340.816 331.376 341.385C316.703 341.853 306.678 351.76 307.301 363.729C307.908 375.229 318.951 383.795 333.487 383.934C341.886 384.01 350.286 383.947 358.686 383.947L358.701 383.934ZM358.321 255.946C366.721 255.946 375.12 256.047 383.52 255.921C398.451 255.693 409.675 246.419 409.63 234.501C409.584 222.785 398.572 213.422 383.976 213.233C366.979 213.005 349.982 213.017 332.986 213.233C318.039 213.422 307.118 222.835 307.301 234.88C307.468 246.672 318.434 255.68 333.137 255.921C341.537 256.06 349.937 255.946 358.336 255.946H358.321Z" fill="white"/>
<path d="M168.824 232.56C183.816 220.718 198.443 209.141 213.101 197.59C223.414 189.455 236.492 189.366 247.276 197.299C257.377 204.738 258.911 217.201 250.755 226.158C249.433 227.613 247.869 228.916 246.274 230.181C226.877 245.566 207.481 260.939 188.039 276.286C175.857 285.901 161.913 285.876 149.701 276.248C136.502 265.835 123.242 255.448 110.225 244.871C102.524 238.608 100.261 230.865 103.876 222.4C107.4 214.139 114.873 209.457 125.308 208.433C133.312 207.648 140.208 210.001 146.041 214.607C153.544 220.541 161.093 226.449 168.84 232.547L168.824 232.56Z" fill="white"/>
<path d="M168.987 357.471C184.13 345.502 198.742 333.926 213.385 322.374C223.394 314.467 236.427 314.378 247.135 322.096C257.129 329.308 258.937 341.618 251.206 350.513C249.808 352.119 248.137 353.587 246.406 354.953C227.192 370.25 207.977 385.546 188.717 400.779C175.594 411.154 162.091 411.141 149.074 400.804C136.209 390.582 123.283 380.397 110.569 370.047C102.899 363.81 100.347 356.168 103.856 347.641C107.273 339.353 114.64 334.584 125.029 333.407C133.034 332.509 139.976 334.773 145.839 339.341C153.418 345.237 160.967 351.17 168.972 357.459L168.987 357.471Z" fill="white"/>
<path d="M358.703 383.964C350.303 383.964 341.903 384.027 333.504 383.951C318.968 383.812 307.925 375.243 307.318 363.737C306.68 351.775 316.72 341.852 331.393 341.383C349.361 340.814 367.391 340.826 385.375 341.383C399.728 341.826 409.996 351.699 409.617 363.218C409.222 374.951 398.027 383.799 383.309 383.938C375.107 384.014 366.905 383.951 358.718 383.951L358.703 383.964Z" fill="white"/>
<path d="M358.237 255.945C349.837 255.945 341.438 256.059 333.038 255.92C318.335 255.679 307.369 246.68 307.201 234.87C307.019 222.808 317.94 213.39 332.886 213.213C349.883 212.998 366.88 212.985 383.876 213.213C398.473 213.416 409.485 222.782 409.531 234.49C409.576 246.414 398.351 255.692 383.421 255.92C375.021 256.046 366.637 255.945 358.237 255.945Z" fill="white"/>
</svg>
