<svg width="26" height="24" viewBox="0 0 26 24" fill="none" xmlns="http://www.w3.org/2000/svg">
<g clip-path="url(#clip0_550_106)">
<path d="M15.9019 13.349C12.8783 13.349 10.418 10.9057 10.418 7.90296C10.418 4.90025 12.8783 2.45691 15.9019 2.45691C18.9255 2.45691 21.3859 4.90025 21.3859 7.90296C21.3859 10.9057 18.9255 13.349 15.9019 13.349ZM15.9019 4.08219C13.7798 4.08219 12.0546 5.79686 12.0546 7.90296C12.0546 10.0091 13.7812 11.7237 15.9019 11.7237C18.0227 11.7237 19.7493 10.0091 19.7493 7.90296C19.7493 5.79686 18.0227 4.08219 15.9019 4.08219Z" fill="white"/>
<path d="M10.5851 9.23567C10.4255 9.25598 10.2632 9.26682 10.0982 9.26682C7.97609 9.26682 6.25085 7.55214 6.25085 5.44605C6.25085 3.33995 7.97746 1.62528 10.0982 1.62528C11.3625 1.62528 12.4863 2.23476 13.1886 3.17201C13.6701 2.89842 14.1979 2.69391 14.757 2.57607C13.7887 1.0307 12.0621 0 10.0982 0C7.0746 0 4.61426 2.44334 4.61426 5.44605C4.61426 8.44876 7.0746 10.8921 10.0982 10.8921C10.491 10.8921 10.8742 10.8501 11.2438 10.7716C10.9492 10.3016 10.7242 9.78555 10.5851 9.23567Z" fill="white"/>
<path d="M25.1814 23.9999H6.62103C6.1696 23.9999 5.80273 23.6356 5.80273 23.1873C5.80273 17.0383 10.3334 12.0352 15.9005 12.0352C17.7021 12.0352 19.471 12.5647 21.0149 13.5683C24.0889 15.5647 25.9983 19.2501 25.9983 23.1873C25.9983 23.6356 25.6314 23.9999 25.18 23.9999H25.1814ZM7.47069 22.3747H24.3317C24.0957 19.2934 22.5273 16.4911 20.1202 14.9282C18.8436 14.0993 17.3844 13.6604 15.9019 13.6604C11.479 13.6604 7.83893 17.5002 7.47069 22.3747Z" fill="white"/>
<path d="M10.0978 11.2037C10.6297 11.2037 11.1588 11.2619 11.6785 11.373C11.2448 10.8542 10.9079 10.2542 10.691 9.59869C10.4933 9.5865 10.2955 9.57837 10.0978 9.57837C4.53063 9.57837 0 14.5815 0 20.7305C0 21.1788 0.366869 21.5432 0.818296 21.5432H5.91355C5.98856 20.9865 6.1004 20.4447 6.24633 19.9179H1.6666C2.03347 15.0434 5.67488 11.2037 10.0978 11.2037Z" fill="white"/>
</g>
<defs>
<clipPath id="clip0_550_106">
<rect width="26" height="24" fill="white"/>
</clipPath>
</defs>
</svg>
